<!-- <svg xmlns="http://www.w3.org/2000/svg" x="0px" y="0px" width="100" height="100" viewBox="0,0,300,150" -->
<!-- style="fill:#FFFFFF;"> -->
<!-- <g fill="#ffffff" fill-rule="nonzero" stroke="none" stroke-width="1" stroke-linecap="butt" stroke-linejoin="miter" stroke-miterlimit="10" stroke-dasharray="" stroke-dashoffset="0" font-family="none" font-weight="none" font-size="none" text-anchor="none" style="mix-blend-mode: normal"><g transform="scale(10.66667,10.66667)"><path d="M10.9,2.1c-4.6,0.5 -8.3,4.2 -8.8,8.7c-0.5,4.7 2.2,8.9 6.3,10.5c0.3,0.1 0.6,-0.1 0.6,-0.5v-1.6c0,0 -0.4,0.1 -0.9,0.1c-1.4,0 -2,-1.2 -2.1,-1.9c-0.1,-0.4 -0.3,-0.7 -0.6,-1c-0.3,-0.1 -0.4,-0.1 -0.4,-0.2c0,-0.2 0.3,-0.2 0.4,-0.2c0.6,0 1.1,0.7 1.3,1c0.5,0.8 1.1,1 1.4,1c0.4,0 0.7,-0.1 0.9,-0.2c0.1,-0.7 0.4,-1.4 1,-1.8c-2.3,-0.5 -4,-1.8 -4,-4c0,-1.1 0.5,-2.2 1.2,-3c-0.1,-0.2 -0.2,-0.7 -0.2,-1.4c0,-0.4 0,-0.9 0.2,-1.3c0,-0.2 0.2,-0.3 0.3,-0.3h0.1c0.5,0.1 1.5,0.4 2.4,1.3c0.6,-0.2 1.3,-0.3 2,-0.3c0.7,0 1.4,0.1 2,0.3c0.9,-0.9 2,-1.2 2.5,-1.3h0.1c0.2,0 0.3,0.1 0.4,0.3c0,0.4 0,0.9 0,1.3c0,0.8 -0.1,1.2 -0.2,1.4c0.7,0.8 1.2,1.8 1.2,3c0,2.2 -1.7,3.5 -4,4c0.6,0.5 1,1.4 1,2.3v2.6c0,0.3 0.3,0.6 0.7,0.5c3.7,-1.5 6.3,-5.1 6.3,-9.3c0,-6 -5.1,-10.7 -11.1,-10z"></path></g></g> -->
<!-- </svg> -->
<!---->

<svg width="24px" height="24px" viewBox="0 0 24 24" version="1.1" xmlns="http://www.w3.org/2000/svg">
    <path d="M12 2C6.477 2 2 6.484 2 12.017c0 4.425 2.865 8.18 6.839 9.504.5.092.682-.217.682-.483 0-.237-.008-.868-.013-1.703-2.782.605-3.369-1.343-3.369-1.343-.454-1.158-1.11-1.466-1.11-1.466-.908-.62.069-.608.069-.608 1.003.07 1.531 1.032 1.531 1.032.892 1.53 2.341 1.088 2.91.832.092-.647.35-1.088.636-1.338-2.22-.253-4.555-1.113-4.555-4.951 0-1.093.39-1.988 1.029-2.688-.103-.253-.446-1.272.098-2.65 0 0 .84-.27 2.75 1.026A9.564 9.564 0 0112 6.844c.85.004 1.705.115 2.504.337 1.909-1.296 2.747-1.027 2.747-1.027.546 1.379.202 2.398.1 2.651.64.7 1.028 1.595 1.028 2.688 0 3.848-2.339 4.695-4.566 4.943.359.309.678.92.678 1.855 0 1.338-.012 2.419-.012 2.747 0 .268.18.58.688.482A10.019 10.019 0 0022 12.017C22 6.484 17.522 2 12 2z" fill="#ffffff"/>
</svg>
