<!-- <svg xmlns="http://www.w3.org/2000/svg" x="0px" y="0px" width="100" height="100" viewBox="0,0,300,150" -->
<!-- style="fill:#FFFFFF;"> -->
<!-- <g fill="#ffffff" fill-rule="nonzero" stroke="none" stroke-width="1" stroke-linecap="butt" stroke-linejoin="miter" stroke-miterlimit="10" stroke-dasharray="" stroke-dashoffset="0" font-family="none" font-weight="none" font-size="none" text-anchor="none" style="mix-blend-mode: normal"><g transform="scale(5.12,5.12)"><path d="M6.91992,6l14.2168,20.72656l-14.9082,17.27344h3.17773l13.13867,-15.22266l10.44141,15.22266h10.01367l-14.87695,-21.6875l14.08008,-16.3125h-3.17578l-12.31055,14.26172l-9.7832,-14.26172z"></path></g></g> -->
<!-- </svg> -->

<svg width="24px" height="24px" viewBox="0 0 24 24" version="1.1" xmlns="http://www.w3.org/2000/svg">
    <path d="M13.3174 10.7749L19.1457 4H17.7646L12.7039 9.88256L8.66193 4H4L10.1122 12.8955L4 20H5.38119L10.7247 13.7878L14.994 20H19.656L13.3171 10.7749H13.3174ZM11.4257 12.9738L10.8064 12.0881L5.85885 5.03974H8.00011L12.0305 10.728L12.6499 11.6137L17.7652 18.9852H15.624L11.4257 12.9738Z" fill="#ffffff"/>
</svg>
